<svg width="40" height="40" viewBox="0 0 40 40" fill="none" xmlns="http://www.w3.org/2000/svg">
<path fill-rule="evenodd" clip-rule="evenodd" d="M34.1114 5.85808C30.3371 2.08045 25.3192 0 19.9821 0C14.645 0 9.62708 2.08045 5.85284 5.85808C2.07859 9.6357 0 14.6581 0 20C0 25.3418 2.07859 30.3643 5.85284 34.1419C9.62708 37.9195 14.645 40 19.9821 40C25.3192 40 30.3371 37.9195 34.1114 34.1419C37.8856 30.3643 39.9642 25.3418 39.9642 20C39.9642 14.6581 37.8856 9.6357 34.1114 5.85808ZM20.71 38.529V26.559H25.3468L26.418 27.4896C26.142 27.9851 25.985 28.5566 25.985 29.1644C25.985 31.0722 27.5289 32.6174 29.435 32.6174C31.3411 32.6174 32.8849 31.0722 32.8849 29.1644C32.8849 27.2566 31.3411 25.7113 29.435 25.7113C28.6622 25.7113 27.9498 25.9651 27.3753 26.395L25.8901 25.1053H20.7118V20.7234H27.5099C27.8428 22.2807 29.2262 23.4496 30.8822 23.4496C32.7883 23.4496 34.3322 21.9043 34.3322 19.9965C34.3322 18.0887 32.7883 16.5435 30.8822 16.5435C29.2262 16.5435 27.8428 17.7124 27.5099 19.2697H20.7118V14.8878H25.8901L27.365 13.6067C27.9411 14.0401 28.6587 14.2973 29.435 14.2973C31.3411 14.2973 32.8849 12.7521 32.8849 10.8443C32.8849 8.93646 31.3411 7.39123 29.435 7.39123C27.5289 7.39123 25.985 8.93646 25.985 10.8443C25.985 11.4485 26.1403 12.0148 26.4128 12.5086L25.3485 13.434H20.7118V11.0117C22.2677 10.6785 23.4355 9.29386 23.4355 7.6364C23.4355 5.72859 21.8917 4.18336 19.9856 4.18336C18.0795 4.18336 16.5356 5.72859 16.5356 7.6364C16.5356 9.29386 17.7034 10.6785 19.2593 11.0117V13.434H14.6226L13.5583 12.5086C13.8308 12.0148 13.9861 11.4485 13.9861 10.8443C13.9861 8.93646 12.4422 7.39123 10.5361 7.39123C8.63005 7.39123 7.0862 8.93646 7.0862 10.8443C7.0862 12.7521 8.63005 14.2973 10.5361 14.2973C11.3124 14.2973 12.03 14.0401 12.6061 13.6067L14.081 14.8878H19.2593V19.2697H12.4612C12.1283 17.7124 10.7449 16.5435 9.08889 16.5435C7.18279 16.5435 5.63894 18.0887 5.63894 19.9965C5.63894 21.9043 7.18279 23.4496 9.08889 23.4496C10.7449 23.4496 12.1283 22.2807 12.4612 20.7234H19.2593V25.1053H14.081L12.5958 26.395C12.0213 25.9651 11.3072 25.7113 10.5361 25.7113C8.63005 25.7113 7.0862 27.2566 7.0862 29.1644C7.0862 31.0722 8.63005 32.6174 10.5361 32.6174C12.4422 32.6174 13.9861 31.0722 13.9861 29.1644C13.9861 28.5566 13.8291 27.9851 13.5531 27.4896L14.6243 26.559H19.2611V38.529C9.38041 38.1457 1.45932 29.981 1.45932 20C1.45932 9.77382 9.77026 1.45545 19.9873 1.45545C30.2043 1.45545 38.5152 9.77382 38.5152 20C38.5118 29.9827 30.5907 38.1457 20.71 38.529Z" fill="black"/>
</svg>
